<?xml version="1.0" encoding="UTF-8"?>
<svg id="Layer_2" data-name="Layer 2" xmlns="http://www.w3.org/2000/svg" viewBox="0 0 192.8 87.91">
  <defs>
    <style>
      .cls-1 {
        fill: #000;
        stroke-width: 0px;
      }
    </style>
  </defs>
  <g id="Layer_1-2" data-name="Layer 1">
    <path class="cls-1" d="M30.36,56.8c-8.29-.6-16.59-1.16-24.88-1.81-3.13-.24-5.9-4-5.43-7.03.24-1.57,1.3-2.1,2.48-1.61,7.55,3.1,13.7-1.53,19.91-4.06,12.31-5.01,25.33-7,38.04-10.32,1.41-.37,3.29-.76,4.39-.15,9.05,5.03,17.87.48,26.77-.38,2.31-.22,4.58-.86,6.88-1.27,2.13-.38,4.14.04,5.36,1.86,5.32,7.97,13.39,5.74,19.89,3.91,10.68-3,20.79-8.02,31.15-12.17,4.04-1.61,5.68-5.47,8.1-8.57,3.37-4.33,6.48-8.87,9.94-13.12,2.16-2.66,4.37-3.01,6.77.32,3.69,5.13,7.74,10,11.79,14.86,2.13,2.55,1.5,4.05-1.26,5.32-5.3,2.43-10.53,5.01-15.85,7.39-2.7,1.2-3.65,2.86-3.1,5.88,1.18,6.55,2.05,13.16,2.99,19.75,1.01,7.06.1,8.47-6.66,10.07-2.49.59-4.61,1.66-6.62,3.28-7.39,5.95-14.96,11.69-22.33,17.67-2.34,1.9-3.8,1.71-5.76-.55-4.36-5.02-8.98-9.83-13.52-14.7-5.64-6.05-13.02-7.42-20.8-7.7-1.15-.04-2.79.34-3.36-.27-5.84-6.26-13.76-4.49-20.74-4.85-6.54-.33-11.1-2.62-14.53-7.72-3.24-4.84-7.17-6.46-12.6-3.7-2.04,1.03-3.87.62-5.05-1.6-1.99-3.72-5-1.87-7.42-.94-2.76,1.06-1.04,3.35-.63,5.17.11.49.3.95.45,1.43,1.77,5.53,1.43,5.97-4.4,5.62Z"/>
  </g>
</svg>