<?xml version="1.0" encoding="UTF-8"?>
<svg id="Layer_2" data-name="Layer 2" xmlns="http://www.w3.org/2000/svg" viewBox="0 0 40.53 54.03">
  <defs>
    <style>
      .cls-1 {
        fill: #000;
        stroke-width: 0px;
      }
    </style>
  </defs>
  <g id="Layer_1-2" data-name="Layer 1">
    <path class="cls-1" d="M30.07,39.26q4.55,9.76-5.02,11.63c-4.74.93-9.48,1.82-14.19,2.91-2.87.66-4.34-.02-4.77-3.17C4.2,36.79,2.21,22.96.11,9.15-.41,5.68.86,4.35,4.21,3.92,13.28,2.77,22.33,1.42,31.38.1c3.09-.45,4.6.66,4.97,3.89,1.22,10.57,2.52,21.14,4.02,31.68.63,4.43-.64,5.85-4.99,4.43-1.5-.49-3.15-.51-5.32-.83Z"/>
  </g>
</svg>