<?xml version="1.0" encoding="UTF-8"?>
<svg id="Layer_2" data-name="Layer 2" xmlns="http://www.w3.org/2000/svg" viewBox="0 0 61.34 57.38">
  <defs>
    <style>
      .cls-1 {
        fill: #000;
        stroke-width: 0px;
      }
    </style>
  </defs>
  <g id="Layer_1-2" data-name="Layer 1">
    <path class="cls-1" d="M25.08,57.28c-5.05.52-10.51-1.07-16.02-2.29-2.54-.56-4.11-1.88-4.46-4.6C3.12,38.86,1.58,27.34.07,15.81c-.41-3.1,1.11-4.67,4.08-5.06,4.94-.66,9.87-1.41,14.81-1.98,12.92-1.49,25.57-4.19,37.93-8.26,3.39-1.12,5.13-.58,4.21,3.48-.4,1.78-.7,3.6-.8,5.42-.18,3.29-1.37,4.94-5.01,4.01-2.37-.61-4.57.4-6.68,1.46-3.48,1.74-7.1,2.84-11.06,2.14-1.54-.27-3.19-.38-3.69,1.53-1.14,4.29-3.12,8.43-2.28,13.1,1.18,6.54,2.27,13.1,3.33,19.66.91,5.65.64,5.91-5.12,5.96-1.33.01-2.66,0-4.69,0Z"/>
  </g>
</svg>