<?xml version="1.0" encoding="UTF-8"?>
<svg id="Layer_2" data-name="Layer 2" xmlns="http://www.w3.org/2000/svg" viewBox="0 0 105.99 51.18">
  <defs>
    <style>
      .cls-1 {
        fill: #000;
        stroke-width: 0px;
      }
    </style>
  </defs>
  <g id="Layer_1-2" data-name="Layer 1">
    <path class="cls-1" d="M105.99,22.72c.08,10.09-.73,10.82-8.55,13.22-24.49,7.51-50.03,8.91-75.09,13.08-4.75.79-9.56,1.28-14.32,2.05-2.98.48-4.33-.76-4.65-3.61C2.28,37.56,1.13,27.66.04,17.75c-.31-2.83,1-4.36,3.88-4.66,2.81-.29,5.61-.73,8.4-1.12,3.95-.56,7.88-.96,10.76-4.4,1.81-2.17,4.57-1.68,7.05-1.34,7.41,1.03,14.86,1.9,22.2,3.31,4.09.79,6.98-.24,8.75-3.78C63.44,1.05,67.13-.17,72.13.02c8.48.32,16.98.25,25.46.03,4.5-.12,6.18,1.74,6.48,6.11.42,6.13,1.39,12.21,1.92,16.57Z"/>
  </g>
</svg>