<?xml version="1.0" encoding="UTF-8"?>
<svg id="Layer_2" data-name="Layer 2" xmlns="http://www.w3.org/2000/svg" viewBox="0 0 174.53 119.8">
  <defs>
    <style>
      .cls-1 {
        fill: #000;
        stroke-width: 0px;
      }
    </style>
  </defs>
  <g id="Layer_1-2" data-name="Layer 1">
    <path class="cls-1" d="M.57,58.97c-.53-7.08,2.99-13.75-.37-20.41-.76-1.52.74-2.36,2.17-2.66,1.79-.38,3.59-.73,5.39-1.04,13.69-2.34,13.66-8.28,9.45-17.79-2.43-5.51.11-7.21,3.13-9.2,3.65-2.4,6,.75,7.65,3.37,2.83,4.5,6.63,6.27,11.78,5.64,2.09-.25,4.08-.71,4.68-3.02.84-3.21,3.12-2.77,5.54-2.6,8.62.6,17.25,1.21,25.89,1.56,5.54.23,5.71-.21,3.95-5.7-.15-.48-.37-.94-.45-1.43-.27-1.8-2.41-3.91,0-5.32,2.12-1.24,3.15.93,4.21,2.42,1.72,2.4,4.08,1.34,5.89.53,4.51-2.02,8.33-1.37,10.78,2.84,4.69,8.03,12.31,8.62,20.26,8.69,5.48.04,11.12-.53,15.17,4.47.65.81,1.74.91,2.78.76,11.68-1.61,20.12,3.48,26.8,12.65,2.14,2.94,4.95,5.39,7.53,7.99,2.17,2.19,2.52,3.9-.34,6.03-10.54,7.86-20.7,16.27-31.5,23.76-5.15,3.58-11.84,4.31-17.94,5.87-5.63,1.44-10.79,4.51-16.79,4.61-1.84.03-2.58,1.32-2.31,3.12.07.49.15,1.02.39,1.44,4.79,8.35,1.78,14.52-4.94,20.31-3.99,3.44-7.14,7.88-10.51,12-2.44,2.98-3.9,2.4-5.12-.92-1.09-2.97-2.35-5.88-3.5-8.82-.75-1.91-1.75-2.99-3.51-.96-2.85,3.27-3.67.65-4.69-1.55-5.05-10.95-7.88-22.64-10.94-34.22-1.22-4.61-2.95-5.41-7.31-3.85-14.11,5.06-28.39,9.63-42.49,14.7-3.6,1.29-5.16.65-6.12-2.93-1.86-6.86-5.59-13.29-4.64-20.34Z"/>
  </g>
</svg>