<?xml version="1.0" encoding="UTF-8"?>
<svg id="Layer_2" data-name="Layer 2" xmlns="http://www.w3.org/2000/svg" viewBox="0 0 95.43 107.34">
  <defs>
    <style>
      .cls-1 {
        fill: #000;
        stroke-width: 0px;
      }
    </style>
  </defs>
  <g id="Layer_1-2" data-name="Layer 1">
    <path class="cls-1" d="M40,2.55c5.29,2.3,11,.06,16.63-1.98,3.29-1.2,5.81-.45,8.21,1.74,5.77,5.29,11.52,10.59,17.34,15.82,1.61,1.45,2.25,3.2,2.47,5.27,2.84,26.98,6.1,53.91,10.45,80.7.16.97.74,2.09-.12,2.84-1.17,1.01-2.16-.14-3.08-.72-9.9-6.23-18.85-13.7-27.43-21.58-5.46-5.02-10.95-9.68-18.45-11.29-2.33-.5-4.63-1.48-5.15-4.15-1.62-8.24-8.03-11.67-14.64-15.06-4.46-2.29-9.64-3.57-11.49-9.47-.74-2.34-4.14-2.61-6.52-3.16-3.95-.91-5.67-3.31-6.59-7.12-2.8-11.57-2.96-11.65,8.07-15.85,7.93-3.02,15.98-5.76,24.01-8.54,2.72-.94,5.2-1.66,3.31-5.45-1.06-2.12.19-2.69,3-1.99Z"/>
  </g>
</svg>