<?xml version="1.0" encoding="UTF-8"?>
<svg xmlns="http://www.w3.org/2000/svg" xmlns:xlink="http://www.w3.org/1999/xlink" viewBox="0 0 327.35 257.8">
  <defs>
    <style>
      .cls-1 {
        fill: url(#linear-gradient);
      }

      .cls-1, .cls-2, .cls-3, .cls-4, .cls-5, .cls-6, .cls-7, .cls-8, .cls-9, .cls-10, .cls-11, .cls-12 {
        stroke-width: 0px;
      }

      .cls-2 {
        fill: url(#Degradado_sin_nombre_290-2);
      }

      .cls-3 {
        fill: url(#linear-gradient-6);
      }

      .cls-13 {
        isolation: isolate;
      }

      .cls-4 {
        fill: url(#linear-gradient-5);
      }

      .cls-5 {
        fill: url(#Degradado_sin_nombre_290);
      }

      .cls-5, .cls-10, .cls-11 {
        mix-blend-mode: multiply;
      }

      .cls-6 {
        fill: url(#linear-gradient-2);
      }

      .cls-7 {
        fill: url(#linear-gradient-3);
      }

      .cls-8 {
        fill: url(#linear-gradient-9);
      }

      .cls-9 {
        fill: url(#linear-gradient-10);
      }

      .cls-10 {
        fill: url(#linear-gradient-7);
      }

      .cls-11 {
        fill: url(#linear-gradient-8);
      }

      .cls-12 {
        fill: url(#linear-gradient-4);
      }
    </style>
    <linearGradient id="linear-gradient" x1="112.6" y1="153.65" x2="-242.32" y2="336.68" gradientUnits="userSpaceOnUse">
      <stop offset=".29" stop-color="#fff7e1"/>
      <stop offset="1" stop-color="#f5e0b2"/>
    </linearGradient>
    <linearGradient id="linear-gradient-2" x1="11.02" y1="37.97" x2="184.73" y2="235.61" gradientUnits="userSpaceOnUse">
      <stop offset="0" stop-color="#ac572b"/>
      <stop offset=".09" stop-color="#b0602c"/>
      <stop offset=".24" stop-color="#bd7a2e"/>
      <stop offset=".28" stop-color="#c28430"/>
      <stop offset=".4" stop-color="#d29b47"/>
      <stop offset=".51" stop-color="#dfad58"/>
      <stop offset=".58" stop-color="#d59e4b"/>
      <stop offset=".77" stop-color="#bd782a"/>
      <stop offset=".92" stop-color="#b47129"/>
      <stop offset="1" stop-color="#ad6d29"/>
    </linearGradient>
    <linearGradient id="linear-gradient-3" x1="76.96" y1="192.54" x2="97.05" y2="55.5" gradientUnits="userSpaceOnUse">
      <stop offset="0" stop-color="#fee490" stop-opacity="0"/>
      <stop offset=".47" stop-color="#ebc35d"/>
      <stop offset=".6" stop-color="#e1b755"/>
      <stop offset=".84" stop-color="#c99841"/>
      <stop offset="1" stop-color="#b57e30"/>
    </linearGradient>
    <linearGradient id="Degradado_sin_nombre_290" data-name="Degradado sin nombre 290" x1="106.67" y1="110.5" x2="28.83" y2="246.31" gradientUnits="userSpaceOnUse">
      <stop offset="0" stop-color="#fee490"/>
      <stop offset=".47" stop-color="#ebc35d"/>
      <stop offset=".6" stop-color="#e1b755"/>
      <stop offset=".84" stop-color="#c99841"/>
      <stop offset="1" stop-color="#b57e30"/>
    </linearGradient>
    <linearGradient id="linear-gradient-4" x1="117.13" y1="60.23" x2="-31.51" y2="392.53" gradientUnits="userSpaceOnUse">
      <stop offset="0" stop-color="#efb86a"/>
      <stop offset=".04" stop-color="#f2c78a"/>
      <stop offset=".13" stop-color="#f8e3c4"/>
      <stop offset=".19" stop-color="#fbf4e8"/>
      <stop offset=".22" stop-color="#fdfbf6"/>
      <stop offset=".27" stop-color="#fcf9f3"/>
      <stop offset=".31" stop-color="#faf5ea"/>
      <stop offset=".35" stop-color="#f6eeda"/>
      <stop offset=".38" stop-color="#f1e3c5"/>
      <stop offset=".4" stop-color="#ebd6a9"/>
      <stop offset=".43" stop-color="#e3c586"/>
      <stop offset=".46" stop-color="#dab25e"/>
      <stop offset=".48" stop-color="#cf9c2f"/>
      <stop offset=".48" stop-color="#cf9b2d"/>
      <stop offset=".49" stop-color="#d1a039"/>
      <stop offset=".51" stop-color="#dbb462"/>
      <stop offset=".54" stop-color="#e3c687"/>
      <stop offset=".57" stop-color="#ebd5a8"/>
      <stop offset=".6" stop-color="#f1e2c3"/>
      <stop offset=".63" stop-color="#f6edd9"/>
      <stop offset=".67" stop-color="#faf5ea"/>
      <stop offset=".73" stop-color="#fdfaf6"/>
      <stop offset=".8" stop-color="#fefefd"/>
      <stop offset="1" stop-color="#fff"/>
    </linearGradient>
    <linearGradient id="Degradado_sin_nombre_290-2" data-name="Degradado sin nombre 290" x1="20.75" y1="29.78" x2="138.78" y2="26.72" xlink:href="#Degradado_sin_nombre_290"/>
    <linearGradient id="linear-gradient-5" x1="154.91" y1="14.39" x2="295.94" y2="178.94" xlink:href="#linear-gradient-2"/>
    <linearGradient id="linear-gradient-6" x1="301.55" y1="130.08" x2="118.56" y2="58.65" gradientUnits="userSpaceOnUse">
      <stop offset="0" stop-color="#fee490" stop-opacity="0"/>
      <stop offset=".45" stop-color="#ebc35d"/>
      <stop offset=".59" stop-color="#e1b755"/>
      <stop offset=".83" stop-color="#c99841"/>
      <stop offset="1" stop-color="#b57e30"/>
    </linearGradient>
    <linearGradient id="linear-gradient-7" x1="189.28" y1="21.04" x2="162.97" y2="207.74" gradientUnits="userSpaceOnUse">
      <stop offset="0" stop-color="#fee490"/>
      <stop offset=".47" stop-color="#ebc35d"/>
      <stop offset=".6" stop-color="#e1b755"/>
      <stop offset=".84" stop-color="#c99841"/>
      <stop offset="1" stop-color="#b57e30"/>
    </linearGradient>
    <linearGradient id="linear-gradient-8" x1="321.66" y1="39.69" x2="295.35" y2="226.4" xlink:href="#linear-gradient-7"/>
    <linearGradient id="linear-gradient-9" x1="224.88" y1="-6.38" x2="219.16" y2="326.23" xlink:href="#linear-gradient-4"/>
    <linearGradient id="linear-gradient-10" x1="273.33" y1="49.1" x2="334.92" y2="95.51" gradientUnits="userSpaceOnUse">
      <stop offset="0" stop-color="#f9ed9a"/>
      <stop offset=".15" stop-color="#ddb159"/>
      <stop offset=".48" stop-color="#cb822b"/>
      <stop offset=".55" stop-color="#c07c2a"/>
      <stop offset=".67" stop-color="#cb8b2f"/>
      <stop offset=".88" stop-color="#ddb159"/>
      <stop offset=".9" stop-color="#dfb55d"/>
      <stop offset=".93" stop-color="#e5c26c"/>
      <stop offset=".96" stop-color="#efd883"/>
      <stop offset=".98" stop-color="#f9ed9a"/>
    </linearGradient>
  </defs>
  <g class="cls-13">
    <g id="Layer_2" data-name="Layer 2">
      <g id="Layer_1-2" data-name="Layer 1">
        <g>
          <path class="cls-1" d="M140.78,166.91c1.87,13.14-2.62,34.39-8.86,47.67-4.82,10.26-14.63,20.63-24.01,26.86-13.19,8.77-31.73,11.69-47.4,9.43-20.1-2.9-38.46-12.51-52.48-27.78-2.84-3.09-7.91-10.36-7.91-10.36l5.43-4.64s2.75,3.12,3.96,4.28c8.66,8.37,19.92,14.19,31.87,15.65,11.96,1.46,24.54-1.6,34.06-8.98,12.17-9.45,18.36-24.92,20.26-40.2,1.21-9.77,1.1-23.11-2.81-35.49-2.75-8.71-7.31-16.96-14.94-23.08-2.11-1.69-4.42-3.22-7.17-4.54-.62-.25-5.9-3.13-14.32-3.97-4.51-.45-9.93-.51-16,1.18-5.26,1.47-9.83,4.12-13.12,6.98-1.3,1.13-2.45,2.21-3.44,3.31-3.02,3.41-4.73,6.34-4.73,6.34l-7.25-2.19s14.19-13.33,15.34-14.37c12.85-11.52,49.78-18.68,75.66-2.34,7.51,4.74,32.45,18.22,37.85,56.25Z"/>
          <path class="cls-6" d="M118.78,184.79c1.99-34.03-24.77-67.94-58.24-74.44-8.7-1.69-17.72-1.41-26.27.93-2.53.69-5.01,1.57-7.41,2.63-1.14.5-6.71,2.63-7,4.16,0,0,17.14-90.99,17.14-90.99l85.78.38C126.27,27.45,143.18,0,143.18,0c1.33,6.53,1.48,13.26,1.02,19.88-.45,6.44-1.13,13.25-3.28,19.37-2.29,6.51-5.03,10.75-9.83,15.15-5.26,4.82-12.45,7.26-21.37,7.26l-64.93-.72-6.59,32.14c2.4-1.08,4.91-2.09,7.52-2.99,4.22-1.47,8.73-2.61,13.41-3.4,4.69-.79,9.59-1.19,14.54-1.19,6.68,0,13.53.63,20.37,1.88,6.92,1.26,13.68,3.28,20.07,6,6.46,2.74,12.58,6.33,18.2,10.66,5.71,4.41,10.74,9.75,14.94,15.87,4.21,6.12,7.55,13.23,9.93,21.11,2.37,7.85,3.58,16.77,3.58,26.51,0,14.19-2.26,27.04-6.72,38.2-4.48,11.2-10.72,20.85-18.54,28.68-7.84,7.84-17.09,13.86-27.49,17.9-30.92,12-64.12,3.62-88.49-17.77-5.13-4.5-9-8.55-13.9-14.54-1.72-2.1-3.53-4.49-5.62-7.16,1.82-1.57,3.73-3.17,5.55-4.74.84.94,1.94,2.21,2.89,3.19,11.52,11.88,24,23.24,39.81,27.76,32.16,9.2,63.2-14.7,69.47-46.01.55-2.74.9-5.5,1.06-8.25Z"/>
          <path class="cls-7" d="M142.59,17.38c-.4,6.3-1.55,12.17-3.46,17.63-1.92,5.46-4.87,10.01-8.85,13.66-3.99,3.66-9.59,5.48-16.79,5.48H39.25l-10.79,52.64c2.47-2.03,5.36-3.91,8.69-5.65,3.32-1.74,6.92-3.29,10.8-4.64,3.88-1.35,7.98-2.39,12.31-3.12s8.8-1.1,13.42-1.1c6.3,0,12.68.59,19.14,1.77,6.47,1.18,12.68,3.04,18.64,5.57,5.96,2.53,11.53,5.79,16.7,9.79,5.17,3.99,9.67,8.77,13.5,14.34,3.83,5.57,6.84,11.97,9.03,19.23,2.19,7.25,3.29,15.44,3.29,24.54,0,13.39-2.08,25.28-6.24,35.68-4.16,10.41-9.84,19.2-17.04,26.4-7.2,7.2-15.58,12.66-25.14,16.37-9.56,3.71-19.79,5.57-30.7,5.57s-20.78-1.35-28.93-4.05c-8.15-2.7-15.19-6.05-21.09-10.04-5.9-3.99-10.83-8.21-14.76-12.65-3.94-4.44-7.25-8.47-9.95-12.07l5.31-4.54c2.25,2.81,4.72,5.27,7.59,7.75,2.87,2.47,6.08,4.61,9.62,6.41,3.54,1.79,7.43,3.23,11.64,4.3,4.22,1.07,8.74,1.6,13.58,1.6,6.41,0,12.54-1.21,18.39-3.63,5.85-2.42,11-6.1,15.44-11.05,4.44-4.95,7.98-11.19,10.63-18.73,2.64-7.54,4.05-16.16,4.05-26.39s-1.27-18.48-3.63-25.57c-2.36-7.08-5.57-12.96-9.62-17.63-4.05-4.66-8.77-8.13-14.17-10.38-5.4-2.25-11.19-3.37-17.38-3.37-4.72,0-8.88.62-12.48,1.86-3.6,1.24-6.69,2.78-9.28,4.64-2.59,1.85-4.75,3.82-6.49,5.9-1.75,2.08-3.13,3.96-4.14,5.65l-7.25-2.19L35.37,9.28h84.69c10.8,0,16.2-3.09,16.2-9.28h6.92c0,5.29-.2,11.08-.59,17.38Z"/>
          <path class="cls-5" d="M140.78,166.91c1.87,13.14-2.62,34.39-8.86,47.67-4.82,10.26-14.63,20.63-24.01,26.86-13.19,8.77-31.73,11.69-47.4,9.43-20.1-2.9-38.46-12.51-52.48-27.78-2.84-3.09-7.91-10.36-7.91-10.36l5.43-4.64s2.75,3.12,3.96,4.28c8.66,8.37,19.92,14.19,31.87,15.65,11.96,1.46,24.54-1.6,34.06-8.98,12.17-9.45,18.36-24.92,20.26-40.2,1.21-9.77,1.1-23.11-2.81-35.49-2.75-8.71-7.31-16.96-14.94-23.08-2.11-1.69-4.42-3.22-7.17-4.54-.62-.25-5.9-3.13-14.32-3.97-4.51-.45-9.93-.51-16,1.18-5.26,1.47-9.83,4.12-13.12,6.98-1.3,1.13-2.45,2.21-3.44,3.31-3.02,3.41-4.73,6.34-4.73,6.34l-7.25-2.19s14.19-13.33,15.34-14.37c12.85-11.52,49.78-18.68,75.66-2.34,7.51,4.74,32.45,18.22,37.85,56.25Z"/>
          <path class="cls-12" d="M23.57,105.44c-.7,4.1-1.32,8.7-2.11,12.78l-2.75-1.43c11.77-11,27.47-16.07,42.97-16.85,7.75-.32,15.63.24,23.11,2.43,7.49,2.07,14.56,5.35,21.12,9.38,6.51,4.12,12.57,8.96,17.81,14.66,5.27,5.64,9.75,12.14,12.85,19.32,5.95,14.52,6.75,30.67,3.97,45.9-2.8,15.23-9.78,29.89-20.75,40.84-11.01,10.86-25.72,17.7-41.04,19.1-15.33,1.48-30.9-1.9-44.64-8.68-13.73-6.79-25.85-17.07-34.1-30.05l.26-.22c8.24,12.91,20.33,23.18,34.01,29.92,13.69,6.73,29.19,10.06,44.41,8.56,15.13-1.45,30.06-8.05,40.21-19.47,5.11-5.6,9.36-11.97,12.52-18.84,3.15-6.88,5.35-14.16,6.67-21.59,2.56-14.85,1.39-30.45-3.95-44.46-5.36-14.01-15.68-26.3-28.78-34.08-13.07-7.94-28.51-11.16-43.51-9.89-7.49.53-14.95,2-21.89,4.8-6.88,2.77-13.67,6.49-18.91,11.45l-4,3.55,1.25-4.98c.86-4.06,9.96-44.95,12.09-52.99l-6.82,40.86Z"/>
          <path class="cls-2" d="M26.47,54.12l8.9-44.84h84.69c10.8,0,16.2-3.09,16.2-9.28h6.92c0,5.29-.2,11.08-.59,17.38-.4,6.3-1.55,12.17-3.46,17.63-1.92,5.46-4.87,10.01-8.85,13.66-3.99,3.66-9.59,5.48-16.79,5.48l-87.01-.03Z"/>
          <g>
            <path class="cls-4" d="M301.42,107.53c-21.02,0-36.59-17.18-37.5-37.5-.87-19.4,16.34-36.03,35.02-37.4-1.89-2.31-3.88-4.49-5.98-6.51-8.34-8.02-18.23-14.08-29.38-17.98-10.94-3.84-22.81-5.79-35.27-5.79s-24.31,1.95-35.2,5.79c-11.1,3.91-20.96,9.96-29.29,17.98-8.38,8.06-15.06,18.43-19.84,30.83-4.72,12.26-7.11,26.81-7.11,43.26s2.39,30.98,7.12,43.17c4.78,12.32,11.45,22.66,19.83,30.73,8.36,8.04,18.23,14.06,29.32,17.91,10.89,3.77,22.73,5.68,35.17,5.68s24.29-1.91,35.23-5.68c11.15-3.84,21.05-9.87,29.42-17.91,8.38-8.06,15.07-18.39,19.9-30.7,4.59-11.69,7-25.51,7.2-41.11-5.66,3.31-12.1,5.23-18.64,5.23ZM251.96,132.75c-.95,8.71-2.25,16.03-3.86,21.75-1.55,5.48-3.29,9.79-5.19,12.82-1.81,2.89-2.87,4.68-5.23,6.36-.54.38-1.31.84-1.83,1.14-1.1.64-2.2,1.07-3.27,1.28-2.23.43-4.32.65-6.22.65s-3.95-.22-6.11-.64c-1.53-.3-3.14-1.09-4.81-2.36-1.79-1.36-3.58-3.49-5.32-6.35-1.86-3.06-3.59-7.39-5.14-12.89-1.61-5.72-2.95-13.08-3.96-21.89-1.02-8.92-1.54-19.79-1.54-32.3s.52-23.37,1.54-32.29c1.01-8.82,2.35-16.27,3.97-22.14,1.55-5.64,3.3-10.12,5.19-13.33,1.77-3.01,3.6-5.29,5.44-6.78,1.71-1.38,3.34-2.52,4.96-2.67,11.54-1.08,17.47,2.4,22.23,10.53,1.05,1.78,2.23,3.4,3.87,7.32,1.29,3.08,2.93,7.57,4.57,14.73,1.36,5.93,2,11.4,2.95,20.19.96,8.91-1.28,48.05-2.24,56.89Z"/>
            <path class="cls-3" d="M301.42,107.53c-21.02,0-36.59-17.18-37.5-37.5-.74-16.58,11.73-31.15,27.04-35.88-1.32-1.47-2.71-2.87-4.16-4.2-8.17-7.47-17.72-13.03-28.67-16.68-10.94-3.65-22.67-5.48-35.18-5.48s-24.21,1.82-35.1,5.48c-10.89,3.65-20.41,9.2-28.58,16.68-8.17,7.47-14.59,17-19.29,28.58-4.69,11.59-7.03,25.25-7.03,41.01s2.34,29.39,7.03,40.91c4.7,11.53,11.12,21.02,19.29,28.5,8.17,7.47,17.69,13.01,28.58,16.59,10.89,3.59,22.59,5.38,35.1,5.38s24.23-1.79,35.18-5.38c10.95-3.59,20.5-9.13,28.67-16.59,8.17-7.47,14.62-16.97,19.37-28.5,4.14-10.05,6.48-21.7,7.01-34.96-3.78,1.32-7.75,2.05-11.76,2.05ZM254.09,100.93c-.06,21.56.04,43.9-9.27,63.34-2.47,5.16-5.64,9.31-10.44,11.27-1.64.67-3.51.93-5.57,1.1-7.16.57-14.5-1.49-20.32-5.7-5.76-4.17-8.93-11.11-11.08-17.69-4.22-12.95-5.33-26.68-5.89-40.29-.12-3.05-.22-6.11-.28-9.16-.29-14.87.3-29.83,3.05-44.48.68-3.64,1.47-7.29,2.47-10.86.78-2.77,1.6-5.7,2.73-8.38,2.33-5.5,6.22-10.4,11.34-13.52,3.63-2.21,7.87-3.44,12.11-3.56,4.17-.12,8.34.82,11.92,2.96,6.89,4.1,10.86,11.74,13.46,19.33,2.56,7.47,4.06,15.27,5.01,22.99.39,3.14.79,5.99.97,9.23.42,7.6-.19,15.89-.22,23.44Z"/>
            <path class="cls-10" d="M237.69,8.71c-1.26-.24-5.16-.55-7.53-.71-5.67-.37-11.8-.2-17.25.2-4.35.32-8.22.98-9.91,1.26-8.87,1.43-14.14,3.5-19.42,5.38-8.58,3.04-14.62,6.97-21.19,12.41-10.25,8.48-17.4,19-22.09,30.49-1.3,3.18-2.42,6.38-3.35,9.7-.98,3.49-1.73,7-2.34,10.59-.87,5.12-1.35,10.36-1.55,15.59-.14,3.65-.17,7.31-.03,10.96.15,4.1.5,8.18.99,12.22,1.9,15.66,7.36,31.12,17.24,43.41,5.61,6.98,12.2,12.9,19.6,17.48,11.13,6.89,23.97,10.66,37.4,12.36-8.81-1.35-15.89-5.63-22.44-11.28-7.31-6.31-13.82-14.38-18.03-23.39-7.99-17.08-10.26-35.91-10.32-54.77-.05-17.98,3.5-35.76,10.82-52.17,10.3-23.08,32.53-39.97,69.39-39.74Z"/>
            <path class="cls-11" d="M312.1,105.85l-6.04,34.9c4.13-10.02,6.48-21.85,7.02-35.23-.32.11-.65.23-.97.33Z"/>
            <path class="cls-8" d="M242.68,188.41c-18.69,4.32-39.67,1.24-54.44-11-11.23-9.3-18.03-22.97-22.31-36.9-6.37-20.74-7.81-42.93-4.68-64.4,2.78-19.04,9.81-38.56,24.81-50.61,14.54-11.67,35.48-15.44,53.99-13.15,18.14,2.24,35.73,10.12,48.89,22.49.77-.29,1.55-.54,2.33-.77-3.91-4.31-8.34-8.17-13.16-11.42-11.92-8.04-26.03-12.59-40.34-13.95-17.97-1.7-37.1,1.92-51.07,13.35-11.09,9.07-18.72,22.76-23.42,36.1-2.02,5.72-3.54,11.61-4.64,17.57-1.52,8.19-2.31,16.63-2.64,24.93-.35,8.76-.03,17.57,1.24,26.25,3.07,21.05,10.36,35.73,24.1,48.94,16.24,15.62,38.76,19.3,63.03,14.14.22-.05.46-.11.46-.11l-1.01-1.76s-.23.09-1.14.3Z"/>
          </g>
          <path class="cls-9" d="M300.72,99.23c-7.8,0-14.14-2.68-19.01-8.02-4.87-5.35-7.31-12.45-7.31-21.29s2.47-15.93,7.41-21.24c4.94-5.31,11.33-7.97,19.16-7.97s14.19,2.55,19.07,7.66c4.87,5.11,7.31,11.78,7.31,20.01,0,1.99-.13,3.84-.39,5.56h-41.15c.26,4.73,1.77,8.49,4.53,11.26,2.76,2.78,6.23,4.17,10.38,4.17,6.05,0,10.3-2.64,12.77-7.92h11.99c-1.62,5.21-4.58,9.48-8.87,12.81-4.29,3.33-9.59,4.99-15.9,4.99ZM311.35,54.74c-2.86-2.78-6.34-4.17-10.43-4.17s-7.52,1.39-10.29,4.17c-2.77,2.78-4.34,6.5-4.73,11.16h29.84c-.07-4.66-1.53-8.38-4.39-11.16Z"/>
        </g>
      </g>
    </g>
  </g>
</svg>