<?xml version="1.0" encoding="UTF-8"?>
<svg id="Layer_1" xmlns="http://www.w3.org/2000/svg" version="1.1" viewBox="0 0 360 360">
  <!-- Generator: Adobe Illustrator 29.5.1, SVG Export Plug-In . SVG Version: 2.1.0 Build 141)  -->
  <defs>
    <style>
      .st0 {
        fill: #231f20;
      }

      .st1 {
        stroke: #fff;
        stroke-width: .5px;
      }

      .st1, .st2 {
        fill: #fff;
      }

      .st1, .st3, .st4, .st5 {
        stroke-miterlimit: 10;
      }

      .st3 {
        fill: #f37021;
        stroke: #f37021;
      }

      .st3, .st4, .st5 {
        stroke-width: .75px;
      }

      .st4 {
        fill: #ed1c24;
        stroke: #ed1c24;
      }

      .st5 {
        fill: #118acb;
        stroke: #118acb;
      }

      .st6 {
        fill: #15467b;
      }

      .st7 {
        fill: #f8be84;
      }
    </style>
  </defs>
  <g>
    <path class="st6" d="M61.71,183.52h26.21v14.3h-1.95c.82,2.64,1.63,5.22,2.41,7.74.78,2.51,1.55,5.02,2.31,7.51.76,2.49,1.53,5.04,2.31,7.64s1.6,5.29,2.47,8.06h5.14v14.3h-22.63v-13.78h-6.31v13.78h-22.7v-14.3h5.14c.87-2.82,1.68-5.45,2.44-7.9.76-2.45,1.52-4.88,2.28-7.28.76-2.41,1.53-4.88,2.31-7.41.78-2.54,1.63-5.32,2.54-8.35h-1.95v-14.3ZM64.12,195.28h2.86c-1,3.16-1.95,6.23-2.86,9.2-.91,2.97-1.82,5.92-2.73,8.84-.91,2.93-1.82,5.86-2.73,8.81-.91,2.95-1.84,6-2.8,9.17h-4.42v9.23h17.75v-9.23h-3.19l1.5-4.55h14.63c.26.87.51,1.66.75,2.37.24.71.47,1.44.68,2.18h-3.12v9.23h17.75v-9.23h-4.49c-1.91-6.2-3.76-12.21-5.56-18.04-1.8-5.83-3.63-11.82-5.49-17.97h2.8v-9.23h-21.33v9.23ZM65.81,187.74h17.95v5.92h-3.45l12.16,39.33h4.03v5.92h-14.44v-5.92h3.77l-2.41-7.93h-17.23l-2.41,7.93h3.77v5.92h-14.44v-5.92h4.03l12.1-39.33h-3.45v-5.92ZM74.78,197.23c-1.13,3.68-2.25,7.33-3.38,10.95-1.13,3.62-2.25,7.27-3.38,10.95h13.53l-6.76-21.91ZM79.27,217.51h-8.97c.26-.91.5-1.71.72-2.41.22-.69.42-1.37.62-2.02.19-.65.41-1.32.65-2.01.24-.69.49-1.47.75-2.34.35-1,.65-1.97.91-2.92s.54-1.93.85-2.92l4.49,14.62ZM74.78,211.21c-.13.35-.22.61-.26.78-.04.17-.1.36-.16.55-.06.19-.15.48-.26.84-.11.37-.27.9-.49,1.59h2.28l-1.11-3.77Z"/>
    <path class="st6" d="M127.78,197.82h-4.03v30.94h4.03v14.3h-22.44v-14.3h3.97v-30.94h-3.97v-14.3h22.44v14.3ZM125.31,186.05h-17.56v9.23h4.03v36.01h-4.03v9.23h17.56v-9.23h-4.03v-36.01h4.03v-9.23ZM123.68,187.74v5.92h-4.03v39.33h4.03v5.92h-14.31v-5.92h4.03v-39.33h-4.03v-5.92h14.31Z"/>
    <path class="st6" d="M136.69,191.32l5.92-7.8h27.12l5.92,8.19v13.85h-14.18v-7.74h-10.92c-.04,4.98-.05,10.02-.03,15.11.02,5.09.01,10.37-.03,15.83h10.99v-8.32h-7.93v-14.3h22.11v28.79l-5.92,8.12h-27.12l-5.79-8.12-.13-43.62ZM139.16,234.15l4.55,6.37h24.91l4.68-6.5v-25.35h-17.43v9.23h7.93v13.39h-15.74c0-3.12.01-6.17.03-9.17.02-2.99.04-5.96.06-8.9.02-2.95.04-5.9.06-8.87.02-2.97.03-5.99.03-9.07h15.54v7.8h9.49v-10.53l-4.68-6.5h-24.84l-4.75,6.17.13,41.92ZM140.59,192.88l3.9-5.13h23.35l3.9,5.4v8.25h-6.37v-7.74h-18.66l-.19,39.33h18.86v-16.71h-7.93v-5.92h14.31v23.08l-3.9,5.46h-23.35l-3.77-5.33-.13-40.69Z"/>
    <path class="st6" d="M201,197.82v30.94h8.26v-7.73h13.79v22.04h-39.73v-14.3h3.97v-30.94h-3.97v-14.3h21.65v14.3h-3.97ZM202.63,195.28v-9.23h-16.97v9.23h3.97v36.01h-3.97v9.23h35.05v-17.03h-9.1v7.8h-12.94v-36.01h3.97ZM197.1,193.66v39.33h16.06v-7.8h5.98v13.71h-31.93v-5.92h3.97v-39.33h-3.97v-5.92h13.79v5.92h-3.9Z"/>
    <path class="st6" d="M274.68,205.55h-4.75v15.47h4.75v22.04h-43.18v-14.3h3.45v-30.94h-3.45v-14.3h43.18v22.04ZM272.34,186.05h-38.43v9.23h3.45v36.01h-3.45v9.23h38.43v-17.03h-9.75v7.8h-15.87v-13.39h12.09v4.42h8.71v-18.07h-8.71v4.42h-12.09v-13.39h15.87v7.8h9.75v-17.03ZM270.71,201.39h-6.5v-7.74h-19.12v16.71h15.28v-4.42h5.59v14.69h-5.59v-4.35h-15.28v16.71h19.12v-7.8h6.5v13.71h-35.18v-5.92h3.45v-39.33h-3.45v-5.92h35.18v13.65ZM256.4,201.72h3.84v-3.9h-11.18v8.32h7.35v-4.42ZM260.24,228.76v-3.9h-3.84v-4.42h-7.35v8.32h11.18Z"/>
    <path class="st6" d="M307.97,197.82h-11.38v8.32h19.12l5.98,8.19v20.61l-5.98,8.12h-26.99l-5.98-8.12v-13.91h13.72v7.73h11.06v-8.32h-18.79l-5.98-8.12v-20.61l5.98-8.19h26.99l5.98,8.19v13.85h-13.72v-7.74ZM310.31,203.08h9.04v-10.53l-4.75-6.5h-24.78l-4.75,6.5v18.85l4.75,6.5h20.03v13.39h-15.74v-7.8h-9.04v10.53l4.75,6.5h24.78l4.75-6.5v-18.85l-4.75-6.5h-20.35v-13.39h16.06v7.8ZM311.87,193.66h-19.18v16.71h21.13l3.97,5.39v17.68l-3.97,5.46h-23.22l-3.97-5.46v-8.25h5.92v7.8h18.86v-16.71h-20.81l-3.97-5.46v-17.68l3.97-5.4h23.22l3.97,5.4v8.25h-5.92v-7.74Z"/>
  </g>
  <g>
    <polygon class="st6" points="148.88 177.57 107.53 136.05 63.31 178.95 59.11 178.95 107.53 131.05 148.89 172.57 227.52 93.94 312.86 178.95 307.34 178.95 227.52 98.94 148.88 177.57"/>
    <polygon class="st4" points="224.72 110.8 219.27 116.25 282.1 179.08 293 179.08 224.72 110.8"/>
    <polygon class="st5" points="213.26 122.26 207.81 127.71 259.18 179.08 270.08 179.08 213.26 122.26"/>
    <polygon class="st3" points="201.2 134.32 195.75 139.77 235.07 179.08 245.97 179.08 201.2 134.32"/>
    <polygon class="st6" points="189.34 146.17 183.89 151.62 211.35 179.08 222.25 179.08 189.34 146.17"/>
    <polygon class="st6" points="178.67 156.85 173.22 162.3 190.01 179.08 200.91 179.08 178.67 156.85"/>
    <polygon class="st6" points="167.29 168.23 161.84 173.68 167.25 179.08 178.14 179.08 167.29 168.23"/>
    <polygon class="st6" points="115.07 151.16 109.63 145.71 76.25 179.08 87.15 179.08 115.07 151.16"/>
    <polygon class="st6" points="126.54 162.62 121.09 157.17 99.18 179.08 110.07 179.08 126.54 162.62"/>
    <polygon class="st6" points="138.59 174.68 133.14 169.23 123.29 179.08 134.19 179.08 138.59 174.68"/>
    <g>
      <path class="st2" d="M187.8,117.17c-2.87-3.42-5.44-6.62-8.13-9.68-6.87-7.83-14.51-14.66-23.78-19.29-7.37-3.68-15.11-6.27-23.24-7.88-6.28-1.25-12.56-1.46-18.94.2-3.87,1-7.74,2.23-11.01,4.85-2.03,1.63-4.11,2.27-6.5,2.39-6.34.33-12.07,2.72-17.02,7.25-1.41,1.29-3,2.65-3.82,4.33-3.63,7.4-3.38,14.63.57,21.31,1.04,1.76,2.62,3.27,4.25,4.46,1.77,1.28,3.32.27,3.61-2.1.14-1.09.09-2.2.1-3.3.01-2.14.99-3.71,2.83-4.57,2.42-1.13,4.93-1.34,7.33-.49.89.32,1.58,1.19,2.36,1.81-.69.78-1.29,1.67-2.07,2.31-1.67,1.36-3.51,2.48-5.12,3.9-2.65,2.34-4.83,5.11-6.07,8.57-.42,1.17-.03,1.98,1.11,2.07.65.05,1.36-.02,2-.21,1.31-.4,2.59-.92,3.88-1.4,4.39-1.63,8.82-3.08,13.42-3.3,5.04-.24,9.89.26,13.76,3.93,3.75,3.56,6.71,7.58,7.02,13.31.3,5.62-1.44,11.55-7.4,13.95-.64.26-1.15.97-1.72,1.47.53.47,1,1.1,1.61,1.4,5.04,2.49,10.42,3.08,16.05,1.81,2.16-.49,4.27-1.31,6.58-2.04-.27,1.07-.47,2.15-.82,3.18-.87,2.53-2.31,4.72-3.91,6.82-.75.99-.53,1.63.65,1.66,1.44.04,2.93.1,4.34-.23,7.02-1.6,13.1-5.05,17.72-11.24.25-.33.53-.63.8-.94.14,0,.27-.02.41-.03.03.35.04.71.09,1.05.43,3.07.86,6.15,1.33,9.22.09.57.29,1.52.59,1.56.56.09,1.23-.32,1.84-.59.19-.08.31-.35.45-.54,3.26-4.46,5.68-9.33,7.2-14.65.51-1.78.89-3.6,1.34-5.47,2.08.53,4.11,1.06,6.14,1.57,3.55.89,7.16,1.42,10.9.98.74-.09,1.47-.32,2.45-.55-.82-1.02-1.42-1.76-2.02-2.5.07-.11.13-.22.2-.33,1.62.05,3.24.07,4.86.15,4.23.21,8.45.52,12.71-.35.49-.1.97-.37,1.53-.59-6.2-3.5-12.09-6.96-16.47-13.03.84-.12,1.28-.16,1.72-.24,3.07-.54,6.16-1,9.21-1.68,1.11-.24,2.16-.96,3.2-1.54.33-.19.55-.64.85-1.02-1.67-.5-3.19-.84-4.62-1.39-5.1-1.99-9.66-4.95-13.97-8.33-1.35-1.06-2.54-2.36-3.74-3.61-.37-.38-.52-1-.86-1.68.87-.09,1.46-.11,2.05-.21.61-.11,1.22-.29,2.15-.53Z"/>
      <path class="st6" d="M187.8,117.17c-.93.23-1.54.42-2.15.53-.58.1-1.18.13-2.05.21.34.69.49,1.3.86,1.68,1.2,1.26,2.38,2.55,3.74,3.61,4.31,3.37,8.87,6.34,13.97,8.33,1.43.56,2.94.89,4.62,1.39-.31.38-.52.83-.85,1.02-1.04.58-2.09,1.3-3.2,1.54-3.06.67-6.14,1.14-9.21,1.68-.44.08-.88.13-1.72.24,4.38,6.07,10.27,9.53,16.47,13.03-.56.22-1.04.49-1.53.59-4.26.86-8.49.56-12.71.35-1.62-.08-3.24-.1-4.86-.15-.07.11-.13.22-.2.33.6.74,1.19,1.48,2.02,2.5-.98.22-1.71.46-2.45.55-3.74.44-7.35-.08-10.9-.98-2.03-.51-4.06-1.04-6.14-1.57-.46,1.87-.84,3.69-1.34,5.47-1.51,5.32-3.94,10.19-7.2,14.65-.14.19-.27.46-.45.54-.61.26-1.28.67-1.84.59-.29-.05-.5-.99-.59-1.56-.47-3.07-.89-6.14-1.33-9.22-.05-.35-.06-.7-.09-1.05-.14,0-.27.02-.41.03-.27.31-.55.61-.8.94-4.62,6.18-10.7,9.63-17.72,11.24-1.41.32-2.9.26-4.34.23-1.18-.03-1.4-.67-.65-1.66,1.6-2.1,3.04-4.3,3.91-6.82.35-1.03.55-2.11.82-3.18-2.31.73-4.43,1.55-6.58,2.04-5.63,1.27-11.01.68-16.05-1.81-.62-.3-1.08-.93-1.61-1.4.57-.5,1.08-1.21,1.72-1.47,5.96-2.39,7.7-8.33,7.4-13.95-.3-5.72-3.27-9.75-7.02-13.31-3.87-3.67-8.72-4.17-13.76-3.93-4.6.22-9.03,1.67-13.42,3.3-1.29.48-2.57,1-3.88,1.4-.64.2-1.34.27-2,.21-1.14-.09-1.53-.9-1.11-2.07,1.24-3.45,3.42-6.22,6.07-8.57,1.61-1.42,3.46-2.54,5.12-3.9.78-.64,1.39-1.53,2.07-2.31-.78-.62-1.47-1.49-2.36-1.81-2.4-.85-4.92-.64-7.33.49-1.84.86-2.82,2.43-2.83,4.57,0,1.1.04,2.21-.1,3.3-.3,2.37-1.85,3.38-3.61,2.1-1.63-1.19-3.21-2.7-4.25-4.46-3.95-6.68-4.2-13.91-.57-21.31.82-1.67,2.41-3.04,3.82-4.33,4.95-4.54,10.68-6.92,17.02-7.25,2.39-.13,4.47-.77,6.5-2.39,3.27-2.62,7.14-3.85,11.01-4.85,6.38-1.66,12.65-1.45,18.94-.2,8.12,1.62,15.87,4.21,23.24,7.88,9.27,4.63,16.91,11.46,23.78,19.29,2.69,3.07,5.26,6.26,8.13,9.68ZM178.57,143.76c7.86,2.54,15.69,5.11,24.32,6.06-.78-.46-1.29-.74-1.78-1.05-3.13-2-6.35-3.87-9.37-6.03-6.38-4.57-11.28-10.79-16.36-16.79-4.16-4.92-7.8-10.33-12.58-14.65-.11-.1-.14-.28-.33-.68.67.41,1.16.61,1.53.95,1.35,1.26,2.77,2.46,3.96,3.88,3.88,4.63,7.67,9.33,11.48,14.02,1.06,1.31,2.44,2.02,4.02,2.37,2.84.63,5.69,1.15,8.64,1.26,2.13.08,4.23.4,6.34.61.08-.12.15-.24.23-.37-11.84-6.52-20.66-16.59-29.14-27.15,3.31,1.91,6.63,3.81,10.12,5.82-.19-.28-.25-.41-.34-.51-7.21-7.66-14.92-14.62-24.29-19.37-5.88-2.98-11.89-5.64-18.41-6.97-7.61-1.55-15.29-1.74-23.05.46-2.86.81-5.52,2.08-7.34,4.83-.74,1.12-.73,2.33.02,3.36.5.69.99.9,1.75.19.48-.44,1.13-.68,1.7-1.01-1.29,1.98-.94,4.4,1,5.17,1.38.55,2.88.88,4.38,1.05,4.59.5,9.21.84,13.81,1.32,1.77.18,3.52.55,5.28.83,0,.11-.02.23-.03.34-.81.24-1.63.47-2.44.71v.46c6.64,2.35,13.18,4.86,18.09,10.29-3.1-1.98-6.27-3.84-9.81-4.89-3.51-1.04-7.13-1.51-11.02-1,.51.49.88.85,1.16,1.12-1.23.59-2.37,1.22-3.55,1.7-2.42.98-4.94,1.71-7.23.3-1.77-1.09-3.06-2.77-3.87-4.83-.22-.56-.49-1.13-.83-1.61-.99-1.42-2.23-1.74-4.03-.93.74,1.26,1.32,2.59,2.18,3.68,4.28,5.43,10.09,8.56,16.2,11.22.91.4,1.88.67,2.82,1-.02.17-.04.34-.06.51-4.84-.27-9.65-.36-14.47.98-4.79,1.33-9.7,2.23-13.99,5.79,1.44-.21,2.68-.28,3.89-.6,3.11-.8,5.82.26,8.24,1.76,7.34,4.53,11.85,11.38,13.63,20.29.9,4.51-1.54,9.78-5.51,12.12-.88.52-1.77,1-2.65,1.5.01.11.02.21.03.32,2.1.13,4.19.37,6.29.37,4.85,0,9.03-2.03,12.52-5.77.64-.68,1.24-1.68,1.35-2.56.22-1.82.29-3.7.08-5.48-.62-5.29-3.08-9.6-6.27-13.46-.31-.37-.63-.74-.94-1.11-.28-.34-.57-.68-.85-1.02,2.27,1.87,4.36,3.89,5.78,6.58,1.84,3.47,4.02,6.73,4.73,10.83,1.24,7.14,1,14.06-3.49,20.46-.13.19-.22.42-.36.7,2.56-.08,4.85-1.02,6.77-2.68,6.7-5.81,10.84-12.95,10.74-22.21.62.91,1.12,1.78,1.53,2.7,2.63,5.82,4.17,11.98,3.92,18.7.73-1.03,1.51-1.99,1.88-3.08,2.35-7.05,2.73-14.12.07-20.77-2.46-6.14-6.44-11.31-10.7-16.06-4.25-4.74-9.46-8.25-15.33-10.63-.29-.12-.56-.32-.83-.48.05-.09.1-.19.15-.28,2.58.64,5.03,1.63,7.19,3.18,2.51,1.81,4.9,3.78,7.31,5.72,4.13,3.33,7.77,7.12,10.56,11.84,1.5,2.54,2.7,5.32,5.21,7.17,4.31,3.19,8.89,5.78,13.89,7.57,1.24.44,2.73.21,4.11.28.04-.13.07-.26.11-.4-2.83-2.35-5.69-4.68-7.72-7.95ZM87.4,129.13c1.09-.37,1.88-.62,2.67-.9,3.38-1.22,6.8-2.28,10.11-3.7,6.6-2.83,13.16-5.78,20.2-6.87.55-.09,1.08-.38,1.74-.62-.27-.32-.37-.48-.51-.59-2.77-2.26-5.56-4.5-8.31-6.78-3.19-2.65-5.65-5.87-6.65-10.2-.27-1.17-.59-2.33-1.01-3.43-1.03-2.72-2.52-3.6-5.35-3.31-.63.07-1.27.11-1.9.18-4.68.5-9.31,1.31-13.73,3.39-5.03,2.36-8.79,8.88-8.37,14.48.22,2.97,1.11,5.7,2.46,8.23.38.72.95,1.33,1.43,1.98.17-1.06-.01-1.95.02-2.84.05-1.28.03-2.64.46-3.81.96-2.64,3.11-4.08,5.49-4.98,3.6-1.37,7.02-.9,10.2.9.91.52,1.69.75,2.79.23,2.28-1.07,4.7-1.13,6.92-.42,3,.95,5.9,2.22,8.8,3.46,1.41.6,2.75,1.4,4.06,2.21.31.19.39.79.57,1.21-.41.07-.92.32-1.22.16-1.07-.55-2.05-.16-3.13.15-4.75,1.36-9.48,2.83-14.27,3.87-5.2,1.12-9.62,3.52-13.46,8.01ZM120.54,102.3c-1.29-.2-2.4-.66-3.35.41-.92,1.03-.67,2.2-.32,3.33.66,2.1,2.29,2.87,4.19,3.14,1.98.29,3.82-.29,5.19-2.04,1.48-1.89,1.19-2.8-.99-3.38-.4-.11-.82-.17-1.26-.27.11,1.76-.57,2.96-2.01,3.65-.97.47-2.58.13-3.15-.68-.58-.81-.38-1.95.53-3,.31-.35.66-.66,1.17-1.16ZM98.19,120.35c4.41-1.12,8.18-3.79,12.15-5.99-.07-.17-.14-.35-.22-.52-4.38,1.19-7.85,4.57-11.93,6.51Z"/>
      <path class="st2" d="M178.57,143.76c2.03,3.27,4.89,5.59,7.72,7.95-.04.13-.07.26-.11.4-1.38-.08-2.87.16-4.11-.28-5.01-1.79-9.58-4.38-13.89-7.57-2.51-1.86-3.71-4.63-5.21-7.17-2.79-4.73-6.43-8.52-10.56-11.84-2.41-1.94-4.81-3.91-7.31-5.72-2.16-1.55-4.61-2.54-7.19-3.18-.05.09-.1.19-.15.28.28.16.54.36.83.48,5.87,2.38,11.09,5.9,15.33,10.63,4.27,4.76,8.25,9.92,10.7,16.06,2.66,6.65,2.28,13.71-.07,20.77-.36,1.09-1.15,2.05-1.88,3.08.24-6.72-1.29-12.87-3.92-18.7-.42-.92-.91-1.8-1.53-2.7.1,9.26-4.04,16.4-10.74,22.21-1.92,1.66-4.21,2.6-6.77,2.68.15-.29.23-.51.36-.7,4.49-6.4,4.73-13.32,3.49-20.46-.71-4.1-2.89-7.36-4.73-10.83-1.42-2.69-3.51-4.71-5.78-6.58.28.34.56.68.85,1.02.31.37.63.74.94,1.11,3.19,3.86,5.65,8.17,6.27,13.46.21,1.79.14,3.67-.08,5.48-.11.89-.71,1.88-1.35,2.56-3.49,3.74-7.67,5.77-12.52,5.77-2.1,0-4.19-.24-6.29-.37-.01-.11-.02-.21-.03-.32.88-.5,1.78-.99,2.65-1.5,3.97-2.34,6.41-7.61,5.51-12.12-1.77-8.91-6.29-15.76-13.63-20.29-2.43-1.5-5.13-2.57-8.24-1.76-1.2.31-2.45.38-3.89.6,4.29-3.56,9.19-4.46,13.99-5.79,4.82-1.34,9.63-1.25,14.47-.98.02-.17.04-.34.06-.51-.94-.33-1.91-.6-2.82-1-6.1-2.66-11.92-5.79-16.2-11.22-.86-1.09-1.44-2.41-2.18-3.68,1.8-.82,3.04-.49,4.03.93.34.49.6,1.05.83,1.61.81,2.05,2.11,3.74,3.87,4.83,2.29,1.41,4.81.68,7.23-.3,1.19-.48,2.33-1.11,3.55-1.7-.28-.27-.66-.63-1.16-1.12,3.89-.51,7.51-.04,11.02,1,3.54,1.05,6.71,2.91,9.81,4.89-4.91-5.43-11.46-7.94-18.09-10.29v-.46c.81-.24,1.63-.47,2.44-.71,0-.11.02-.23.03-.34-1.76-.28-3.5-.65-5.28-.83-4.6-.47-9.21-.81-13.81-1.32-1.49-.16-3-.5-4.38-1.05-1.94-.77-2.29-3.19-1-5.17-.57.33-1.22.57-1.7,1.01-.77.71-1.25.5-1.75-.19-.75-1.03-.76-2.24-.02-3.36,1.82-2.75,4.48-4.02,7.34-4.83,7.76-2.2,15.44-2.01,23.05-.46,6.52,1.33,12.53,3.98,18.41,6.97,9.36,4.75,17.08,11.72,24.29,19.37.09.1.16.23.34.51-3.49-2.01-6.8-3.91-10.12-5.82,8.48,10.56,17.3,20.64,29.14,27.15-.08.12-.15.24-.23.37-2.11-.21-4.22-.54-6.34-.61-2.95-.11-5.8-.63-8.64-1.26-1.58-.35-2.96-1.07-4.02-2.37-3.81-4.69-7.6-9.4-11.48-14.02-1.19-1.42-2.61-2.62-3.96-3.88-.37-.34-.86-.54-1.53-.95.19.4.23.58.33.68,4.78,4.32,8.42,9.73,12.58,14.65,5.07,6,9.98,12.22,16.36,16.79,3.02,2.16,6.24,4.04,9.37,6.03.49.31,1,.59,1.78,1.05-8.63-.95-16.46-3.52-24.32-6.06Z"/>
      <path class="st7" d="M87.4,129.13c3.84-4.49,8.26-6.89,13.46-8.01,4.79-1.03,9.53-2.51,14.27-3.87,1.08-.31,2.06-.7,3.13-.15.3.16.81-.1,1.22-.16-.18-.41-.26-1.01-.57-1.21-1.31-.81-2.65-1.61-4.06-2.21-2.9-1.24-5.8-2.5-8.8-3.46-2.23-.71-4.64-.65-6.92.42-1.1.52-1.88.29-2.79-.23-3.18-1.8-6.6-2.27-10.2-.9-2.38.91-4.53,2.35-5.49,4.98-.43,1.18-.4,2.54-.46,3.81-.04.89.15,1.78-.02,2.84-.48-.66-1.04-1.26-1.43-1.98-1.35-2.53-2.23-5.26-2.46-8.23-.42-5.61,3.33-12.12,8.37-14.48,4.42-2.07,9.05-2.89,13.73-3.39.63-.07,1.27-.12,1.9-.18,2.83-.29,4.32.59,5.35,3.31.42,1.1.74,2.26,1.01,3.43,1,4.34,3.46,7.55,6.65,10.2,2.75,2.28,5.54,4.52,8.31,6.78.14.11.24.28.51.59-.66.24-1.19.53-1.74.62-7.04,1.09-13.59,4.04-20.2,6.87-3.31,1.42-6.74,2.48-10.11,3.7-.78.28-1.58.54-2.67.9ZM102.34,103.27c.17-.59.45-1.05.35-1.35-.7-2.07-1.44-4.16-3.25-5.42-.38-.26-1.54-.1-1.63.14-.32.82-.49,1.79-.41,2.65.08.86.73,1.31,1.65,1.34.47.01.98.24,1.34.55.65.57,1.2,1.26,1.95,2.08Z"/>
      <path class="st2" d="M120.54,102.3c-.5.5-.86.81-1.17,1.16-.92,1.05-1.11,2.19-.53,3,.57.81,2.18,1.15,3.15.68,1.43-.69,2.12-1.89,2.01-3.65.44.09.86.16,1.26.27,2.17.58,2.47,1.49.99,3.38-1.37,1.75-3.21,2.32-5.19,2.04-1.9-.27-3.53-1.04-4.19-3.14-.35-1.13-.59-2.3.32-3.33.96-1.08,2.06-.61,3.35-.41Z"/>
      <path class="st2" d="M98.19,120.35c4.08-1.94,7.56-5.32,11.93-6.51.07.17.14.35.22.52-3.97,2.2-7.74,4.88-12.15,5.99Z"/>
      <path class="st0" d="M102.34,103.27c-.75-.82-1.3-1.52-1.95-2.08-.35-.31-.87-.53-1.34-.55-.92-.02-1.57-.48-1.65-1.34-.08-.86.09-1.83.41-2.65.09-.24,1.26-.4,1.63-.14,1.81,1.25,2.55,3.34,3.25,5.42.1.29-.19.76-.35,1.35Z"/>
    </g>
  </g>
  <g>
    <path class="st6" d="M49.56,247.94l7.65,14.22-7.65,14.22h272.86l-7.65-14.22,7.65-14.22H49.56Z"/>
    <g>
      <path class="st1" d="M110.82,265.85c0,.88-.16,1.65-.49,2.31-.33.66-.77,1.22-1.33,1.66-.56.44-1.21.78-1.96,1-.75.22-1.55.34-2.4.34-.58,0-1.11-.05-1.61-.14s-.93-.21-1.31-.34-.7-.27-.95-.42c-.25-.15-.44-.28-.55-.39-.11-.11-.19-.27-.24-.49-.05-.21-.07-.51-.07-.91,0-.27,0-.49.03-.67.02-.18.05-.33.08-.44.04-.11.09-.19.16-.24.06-.05.14-.07.23-.07.12,0,.29.07.51.21s.5.3.85.47c.34.17.76.33,1.23.47.48.14,1.03.21,1.66.21.41,0,.78-.05,1.11-.15.33-.1.6-.24.83-.42.23-.18.4-.4.52-.67.12-.27.18-.56.18-.89,0-.38-.1-.7-.31-.98s-.48-.51-.81-.72c-.33-.21-.71-.41-1.13-.59-.42-.19-.86-.38-1.31-.59s-.88-.44-1.31-.7c-.42-.26-.8-.58-1.13-.94-.33-.37-.6-.8-.81-1.3s-.31-1.1-.31-1.8c0-.8.15-1.51.45-2.11s.7-1.11,1.2-1.51c.5-.4,1.1-.7,1.78-.9.69-.2,1.41-.3,2.18-.3.4,0,.79.03,1.19.09s.77.14,1.11.25c.34.1.65.22.92.35s.44.24.53.32c.09.09.14.16.17.22s.06.14.08.24c.02.1.04.22.05.38,0,.15.01.34.01.56,0,.25,0,.46-.02.63-.01.17-.03.31-.06.43-.03.11-.07.19-.13.25s-.13.08-.23.08-.25-.06-.45-.18c-.21-.12-.46-.25-.76-.39-.3-.14-.65-.27-1.05-.39s-.83-.17-1.31-.17c-.37,0-.69.05-.97.14-.28.09-.51.22-.69.38-.19.16-.32.35-.41.58-.09.22-.14.46-.14.71,0,.37.1.69.3.96s.47.51.81.72c.34.21.73.41,1.16.59.43.19.87.38,1.32.59.45.21.89.44,1.32.7.43.26.81.58,1.15.94.34.37.61.8.81,1.29.21.5.31,1.08.31,1.75Z"/>
      <path class="st1" d="M130.45,262.3c0,1.39-.17,2.63-.52,3.72s-.86,2.02-1.54,2.79c-.68.76-1.52,1.34-2.53,1.75-1,.4-2.17.6-3.48.6s-2.44-.17-3.41-.51c-.97-.34-1.78-.86-2.42-1.56s-1.13-1.59-1.45-2.66-.48-2.35-.48-3.83c0-1.35.17-2.57.52-3.65.34-1.08.86-2,1.54-2.76s1.52-1.34,2.53-1.75c1-.41,2.17-.61,3.5-.61s2.39.17,3.35.5c.97.34,1.78.85,2.43,1.55.65.7,1.14,1.58,1.47,2.64.33,1.06.5,2.32.5,3.77ZM126.88,262.49c0-.88-.07-1.68-.21-2.4-.14-.72-.37-1.34-.7-1.85-.33-.51-.77-.91-1.33-1.19-.55-.28-1.24-.42-2.07-.42s-1.53.16-2.09.47c-.56.31-1.01.74-1.36,1.26s-.59,1.14-.73,1.84c-.14.7-.21,1.45-.21,2.23,0,.91.07,1.74.21,2.46.14.73.37,1.35.7,1.87.33.52.77.91,1.32,1.18s1.25.41,2.08.41,1.53-.16,2.09-.47c.56-.31,1.01-.73,1.36-1.27s.59-1.16.73-1.87c.14-.71.21-1.47.21-2.27Z"/>
      <path class="st1" d="M148.95,264.63c0,1.03-.15,1.94-.45,2.75-.3.81-.75,1.5-1.33,2.06-.59.56-1.31.99-2.17,1.28-.86.29-1.85.44-2.97.44-1.05,0-2-.13-2.83-.39s-1.54-.66-2.12-1.2c-.58-.53-1.02-1.2-1.33-2-.31-.8-.46-1.73-.46-2.8v-10.17c0-.09.03-.16.08-.23.05-.07.14-.12.28-.17.13-.04.31-.08.52-.1.22-.03.49-.04.83-.04s.6.01.81.04c.22.03.39.06.52.1s.22.1.28.17c.06.07.08.15.08.23v9.88c0,.66.08,1.24.25,1.73.16.49.4.89.7,1.21.31.32.67.56,1.1.72.43.16.9.24,1.43.24s1.01-.08,1.44-.25c.42-.16.78-.4,1.07-.72.29-.31.52-.7.68-1.16.16-.46.24-.98.24-1.57v-10.07c0-.09.03-.16.08-.23.05-.07.14-.12.27-.17.13-.04.3-.08.52-.1.22-.03.49-.04.82-.04s.6.01.81.04c.21.03.38.06.51.1s.22.1.27.17c.05.07.08.15.08.23v10.03Z"/>
      <path class="st1" d="M166.98,270.42c0,.09-.02.17-.05.24-.03.06-.12.12-.25.16s-.32.07-.57.09-.59.03-1.02.03c-.36,0-.65,0-.87-.03s-.39-.05-.51-.1c-.12-.05-.21-.11-.26-.18s-.1-.16-.13-.26l-1.5-3.74c-.18-.42-.36-.8-.53-1.12-.17-.33-.36-.6-.58-.82-.21-.22-.46-.38-.73-.5-.28-.11-.59-.17-.96-.17h-1.06v6.37c0,.09-.03.16-.08.23-.06.07-.15.12-.28.17-.13.04-.3.08-.52.1-.22.03-.49.04-.83.04s-.6-.01-.82-.04c-.22-.03-.39-.06-.52-.1s-.22-.1-.27-.17c-.05-.07-.08-.15-.08-.23v-15.19c0-.38.1-.65.29-.82s.43-.25.72-.25h4.33c.44,0,.8,0,1.09.03.28.02.54.04.78.07.67.09,1.28.26,1.82.49.54.23,1,.54,1.37.91s.66.82.86,1.33.3,1.1.3,1.76c0,.56-.07,1.07-.21,1.53-.14.46-.35.87-.63,1.24-.28.36-.62.68-1.02.94-.41.27-.87.48-1.38.65.25.12.48.27.7.44.22.17.43.38.62.63.19.25.38.53.55.84s.34.67.5,1.07l1.41,3.3c.13.33.22.57.26.72.04.15.06.27.06.36ZM162.6,259.07c0-.55-.12-1.02-.38-1.4-.25-.38-.66-.65-1.23-.8-.17-.04-.37-.08-.59-.1-.22-.03-.52-.04-.91-.04h-1.53v4.75h1.73c.48,0,.9-.06,1.27-.17.36-.12.66-.28.9-.49s.42-.46.54-.76.18-.62.18-.98Z"/>
      <path class="st1" d="M182.91,259.21c0,.94-.15,1.77-.44,2.5-.29.72-.72,1.33-1.28,1.83-.56.5-1.25.87-2.06,1.13-.81.26-1.77.39-2.88.39h-1.4v5.34c0,.09-.03.16-.08.23-.06.07-.15.12-.28.17-.13.04-.3.08-.52.1-.22.03-.49.04-.83.04s-.6-.01-.82-.04c-.22-.03-.39-.06-.52-.1s-.22-.1-.27-.17c-.05-.07-.08-.15-.08-.23v-15.05c0-.4.11-.71.32-.91.21-.2.49-.3.83-.3h3.94c.4,0,.77.01,1.13.04.36.03.79.09,1.29.19.5.1,1.01.28,1.52.55.51.27.95.61,1.31,1.02.36.41.64.89.83,1.43.19.55.28,1.16.28,1.84ZM179.36,259.46c0-.59-.1-1.07-.31-1.45-.21-.38-.46-.66-.76-.84-.3-.18-.62-.29-.95-.34-.33-.05-.67-.07-1.03-.07h-1.45v5.68h1.53c.54,0,1-.07,1.36-.22.37-.15.67-.35.9-.61.23-.26.41-.58.53-.94.12-.37.18-.76.18-1.2Z"/>
      <path class="st1" d="M208.57,270.4c0,.09-.03.16-.08.23-.06.07-.15.12-.28.17-.13.04-.3.08-.52.1-.22.03-.49.04-.81.04s-.61-.01-.83-.04c-.22-.03-.39-.06-.52-.1s-.22-.1-.27-.17c-.06-.07-.08-.15-.08-.23v-6.76h-6.26v6.76c0,.09-.03.16-.08.23-.05.07-.14.12-.27.17s-.3.08-.52.1c-.22.03-.49.04-.83.04s-.6-.01-.82-.04c-.22-.03-.39-.06-.52-.1-.13-.04-.22-.1-.28-.17-.06-.07-.08-.15-.08-.23v-15.8c0-.09.03-.16.08-.23.06-.07.15-.12.28-.17.13-.04.3-.08.52-.1.22-.03.49-.04.82-.04s.61.01.83.04c.21.03.39.06.52.1s.22.1.27.17c.05.07.08.15.08.23v6.14h6.26v-6.14c0-.09.03-.16.08-.23.06-.07.15-.12.27-.17s.3-.08.52-.1c.22-.03.5-.04.83-.04s.6.01.81.04c.21.03.39.06.52.1.13.04.22.1.28.17.06.07.08.15.08.23v15.8Z"/>
      <path class="st1" d="M227.9,269.6c.1.31.17.56.19.74.03.18,0,.32-.1.41-.1.09-.26.15-.5.17s-.57.03-1,.03-.78,0-1.03-.02c-.25-.01-.43-.04-.56-.08-.13-.04-.22-.09-.27-.16-.05-.07-.09-.16-.13-.27l-1.12-3.36h-6.28l-1.06,3.27c-.04.12-.08.22-.14.3-.06.08-.15.15-.27.19-.12.05-.3.08-.53.1s-.53.03-.9.03c-.4,0-.71-.01-.93-.04-.22-.03-.38-.09-.46-.19-.09-.1-.12-.24-.09-.42.03-.18.09-.42.19-.72l5.16-14.84c.05-.15.11-.27.18-.36.07-.09.18-.16.33-.21.15-.05.36-.08.63-.09.27-.01.62-.02,1.06-.02.51,0,.91,0,1.21.02.3.01.54.04.71.09.17.05.29.12.36.21.07.1.14.22.19.39l5.17,14.83ZM220.22,257.33h-.01l-2.37,7.11h4.75l-2.37-7.11Z"/>
      <path class="st1" d="M245.33,256.73c0,.25-.01.46-.03.65-.02.18-.05.33-.09.43-.04.11-.09.18-.14.23-.06.04-.12.06-.2.06-.11,0-.29-.08-.54-.23s-.58-.32-1-.5c-.41-.18-.91-.35-1.48-.5s-1.24-.23-2-.23c-.81,0-1.54.14-2.2.42-.66.28-1.22.68-1.68,1.19-.47.51-.82,1.13-1.07,1.85-.25.72-.38,1.52-.38,2.39,0,.96.13,1.8.38,2.53.25.73.61,1.34,1.07,1.83.46.49,1.01.86,1.65,1.11.64.25,1.35.38,2.13.38.38,0,.75-.04,1.12-.13.37-.09.72-.22,1.03-.39v-3.88h-3.17c-.16,0-.28-.1-.36-.29-.09-.19-.13-.52-.13-.99,0-.24.01-.44.03-.61s.05-.29.1-.39c.04-.1.09-.17.16-.22.06-.05.13-.07.21-.07h5.65c.14,0,.26.02.37.07.11.05.2.12.28.21.08.1.14.21.19.34.04.13.06.29.06.46v6.66c0,.26-.04.49-.14.68-.09.19-.28.35-.56.46-.28.11-.63.23-1.04.35-.41.12-.84.22-1.29.31-.44.09-.89.15-1.34.19-.45.04-.91.06-1.36.06-1.34,0-2.53-.19-3.59-.58-1.06-.38-1.95-.94-2.68-1.67-.73-.73-1.29-1.62-1.68-2.66s-.58-2.23-.58-3.56.21-2.6.62-3.69c.41-1.09,1-2.02,1.76-2.78.76-.76,1.67-1.35,2.75-1.75,1.07-.41,2.27-.61,3.59-.61.72,0,1.38.05,1.98.15.59.1,1.11.22,1.56.36.44.14.81.29,1.11.46.29.16.5.31.61.43.12.12.2.29.25.51s.08.55.08.98Z"/>
      <path class="st1" d="M265.81,262.3c0,1.39-.17,2.63-.52,3.72s-.86,2.02-1.54,2.79c-.68.76-1.52,1.34-2.53,1.75-1,.4-2.17.6-3.48.6s-2.44-.17-3.41-.51c-.97-.34-1.78-.86-2.42-1.56s-1.13-1.59-1.45-2.66-.49-2.35-.49-3.83c0-1.35.17-2.57.52-3.65.34-1.08.86-2,1.54-2.76s1.52-1.34,2.53-1.75,2.17-.61,3.5-.61,2.39.17,3.36.5c.97.34,1.78.85,2.43,1.55.65.7,1.14,1.58,1.47,2.64s.5,2.32.5,3.77ZM262.24,262.49c0-.88-.07-1.68-.21-2.4-.14-.72-.37-1.34-.71-1.85-.33-.51-.77-.91-1.33-1.19-.55-.28-1.24-.42-2.07-.42s-1.53.16-2.09.47c-.56.31-1.01.74-1.36,1.26s-.59,1.14-.73,1.84c-.14.7-.21,1.45-.21,2.23,0,.91.07,1.74.21,2.46.14.73.37,1.35.7,1.87.33.52.77.91,1.32,1.18s1.25.41,2.08.41,1.53-.16,2.09-.47,1.01-.73,1.36-1.27.59-1.16.73-1.87c.14-.71.21-1.47.21-2.27Z"/>
      <path class="st1" d="M282.11,259.21c0,.94-.15,1.77-.44,2.5-.29.72-.72,1.33-1.28,1.83-.56.5-1.25.87-2.06,1.13-.81.26-1.77.39-2.88.39h-1.4v5.34c0,.09-.03.16-.08.23-.06.07-.15.12-.28.17-.13.04-.3.08-.52.1-.21.03-.49.04-.83.04s-.6-.01-.82-.04c-.22-.03-.39-.06-.52-.1-.13-.04-.22-.1-.27-.17-.05-.07-.08-.15-.08-.23v-15.05c0-.4.11-.71.32-.91s.49-.3.83-.3h3.94c.4,0,.77.01,1.13.04s.79.09,1.29.19c.5.1,1.01.28,1.52.55.51.27.95.61,1.31,1.02.36.41.64.89.83,1.43.19.55.28,1.16.28,1.84ZM278.55,259.46c0-.59-.1-1.07-.31-1.45-.21-.38-.46-.66-.76-.84s-.62-.29-.95-.34c-.33-.05-.67-.07-1.03-.07h-1.45v5.68h1.53c.54,0,1-.07,1.36-.22s.67-.35.9-.61c.23-.26.41-.58.53-.94.12-.37.18-.76.18-1.2Z"/>
    </g>
  </g>
</svg>