<svg width="63" height="60" viewBox="0 0 63 60" fill="none" xmlns="http://www.w3.org/2000/svg">
<ellipse opacity="0.35" cx="31.5" cy="30" rx="31.5" ry="30" fill="white"/>
<path d="M31.5032 23.5775C27.3886 23.5775 24.0697 26.6682 24.0697 30.5C24.0697 34.3318 27.3886 37.4225 31.5032 37.4225C35.6179 37.4225 38.9368 34.3318 38.9368 30.5C38.9368 26.6682 35.6179 23.5775 31.5032 23.5775ZM31.5032 35.0005C28.8442 35.0005 26.6704 32.9822 26.6704 30.5C26.6704 28.0178 28.8378 25.9995 31.5032 25.9995C34.1687 25.9995 36.336 28.0178 36.336 30.5C36.336 32.9822 34.1622 35.0005 31.5032 35.0005ZM40.9747 23.2944C40.9747 24.1921 40.1984 24.909 39.2409 24.909C38.2769 24.909 37.507 24.186 37.507 23.2944C37.507 22.4027 38.2834 21.6797 39.2409 21.6797C40.1984 21.6797 40.9747 22.4027 40.9747 23.2944ZM45.8981 24.9331C45.7881 22.7702 45.2576 20.8543 43.5561 19.2759C41.8611 17.6974 39.8037 17.2033 37.4812 17.0949C35.0874 16.9684 27.9126 16.9684 25.5189 17.0949C23.2027 17.1973 21.1454 17.6913 19.4439 19.2698C17.7424 20.8483 17.2183 22.7642 17.1019 24.9271C16.966 27.1563 16.966 33.8377 17.1019 36.0669C17.2119 38.2298 17.7424 40.1457 19.4439 41.7241C21.1454 43.3026 23.1963 43.7967 25.5189 43.9051C27.9126 44.0316 35.0874 44.0316 37.4812 43.9051C39.8037 43.8027 41.8611 43.3087 43.5561 41.7241C45.2511 40.1457 45.7817 38.2298 45.8981 36.0669C46.034 33.8377 46.034 27.1623 45.8981 24.9331ZM42.8056 38.4587C42.301 39.6396 41.3241 40.5493 40.0496 41.0253C38.1411 41.7302 33.6123 41.5675 31.5032 41.5675C29.3941 41.5675 24.859 41.7241 22.9569 41.0253C21.6888 40.5553 20.7119 39.6456 20.2008 38.4587C19.4439 36.6814 19.6186 32.4641 19.6186 30.5C19.6186 28.5359 19.4504 24.3126 20.2008 22.5413C20.7055 21.3604 21.6824 20.4507 22.9569 19.9747C24.8654 19.2698 29.3941 19.4325 31.5032 19.4325C33.6123 19.4325 38.1475 19.2759 40.0496 19.9747C41.3176 20.4447 42.2945 21.3544 42.8056 22.5413C43.5626 24.3186 43.3879 28.5359 43.3879 30.5C43.3879 32.4641 43.5626 36.6874 42.8056 38.4587Z" fill="white"/>
</svg>
