<svg width="63" height="60" viewBox="0 0 63 60" fill="none" xmlns="http://www.w3.org/2000/svg">
<ellipse opacity="0.35" cx="31.5" cy="30" rx="31.5" ry="30" fill="white"/>
<path d="M23.4926 42H17.479V23.9739H23.4926V42ZM20.4826 21.515C18.56 21.515 17 20.0324 17 18.2424C17 17.3825 17.3669 16.5578 18.02 15.9497C18.6731 15.3416 19.5589 15 20.4826 15C21.4062 15 22.292 15.3416 22.9452 15.9497C23.5983 16.5578 23.9652 17.3825 23.9652 18.2424C23.9652 20.0324 22.4051 21.515 20.4826 21.515ZM45.9935 42H39.9929V33.225C39.9929 31.1337 39.9475 28.4518 36.8663 28.4518C33.7397 28.4518 33.2607 30.7239 33.2607 33.0743V42H27.2536V23.9739H33.0212V26.4328H33.1054C33.908 25.0165 35.8694 23.5219 38.7953 23.5219C44.8801 23.5219 46 27.2525 46 32.098V42H45.9935Z" fill="white"/>
</svg>
