<svg width="23" height="24" viewBox="0 0 23 24" fill="none" xmlns="http://www.w3.org/2000/svg">
<path d="M3.03432 9.37755L3.43088 10.119C3.78104 10.7745 4.35479 11.2582 5.034 11.4662L7.47666 12.2121C8.20229 12.4336 8.7001 13.1434 8.7001 13.9526V15.7564C8.7001 16.2537 8.96166 16.7058 9.3751 16.9273C9.78854 17.1489 10.0501 17.6009 10.0501 18.0982V19.8614C10.0501 20.5666 10.6787 21.0775 11.3115 20.8831C11.9907 20.6751 12.5181 20.0919 12.691 19.355L12.8092 18.8487C12.9863 18.0847 13.4504 17.4292 14.0874 17.0404L14.4292 16.8324C15.062 16.4481 15.4501 15.7248 15.4501 14.9472V14.572C15.4501 13.9978 15.2349 13.4463 14.8553 13.0394L14.6907 12.8631C14.311 12.4562 13.7963 12.2257 13.2606 12.2257H11.4423C10.974 12.2257 10.5099 12.0946 10.1007 11.8459L8.64525 10.9553C8.46385 10.8423 8.32463 10.6615 8.25713 10.449C8.12213 10.015 8.30354 9.54482 8.68744 9.34138L8.93635 9.20576C9.21479 9.05657 9.53963 9.02945 9.83494 9.13795L10.8137 9.48605C11.1596 9.60811 11.5393 9.46797 11.7376 9.14699C11.9359 8.83053 11.9148 8.41009 11.687 8.11624L11.1132 7.37934C10.6913 6.83684 10.6956 6.0457 11.1259 5.51224L11.7882 4.68493C12.1595 4.21928 12.2185 3.55472 11.9359 3.02578L11.8346 2.83591C11.687 2.82686 11.5435 2.82234 11.3959 2.82234C7.48088 2.82234 4.16072 5.57553 3.03432 9.37755ZM20.1751 12.2257C20.1751 10.562 19.7701 8.9978 19.0613 7.63703L17.9813 8.10268C17.319 8.38749 16.9773 9.17864 17.2009 9.90197L17.9138 12.194C18.0615 12.6642 18.4201 13.0213 18.8673 13.1389L20.0949 13.4689C20.1456 13.062 20.1709 12.6461 20.1709 12.2257H20.1751ZM0.600098 12.2257C0.600098 9.15624 1.73795 6.21252 3.76334 4.04209C5.78874 1.87167 8.53576 0.652344 11.4001 0.652344C14.2644 0.652344 17.0115 1.87167 19.0369 4.04209C21.0622 6.21252 22.2001 9.15624 22.2001 12.2257C22.2001 15.2951 21.0622 18.2388 19.0369 20.4093C17.0115 22.5797 14.2644 23.799 11.4001 23.799C8.53576 23.799 5.78874 22.5797 3.76334 20.4093C1.73795 18.2388 0.600098 15.2951 0.600098 12.2257Z" fill="white"/>
</svg>
