<svg version="1.1" id="Layer_1" xmlns="http://www.w3.org/2000/svg" xmlns:xlink="http://www.w3.org/1999/xlink" x="0px" y="0px"
	 width="100%" viewBox="0 0 512 512" enable-background="new 0 0 512 512" xml:space="preserve">

<path fill="#9ac1d0" opacity="1.0" stroke="none" 
	d="
M347.375488,312.034546 
	C348.044891,338.088257 349.807098,363.604095 350.548615,389.172974 
	C351.112061,408.601471 338.520599,419.498199 320.927277,419.976135 
	C306.379639,420.371338 291.683624,409.873047 291.568542,392.477905 
	C291.426575,371.019745 293.328186,349.646393 293.836426,328.212769 
	C294.174469,313.958099 294.932556,299.672638 295.869629,285.444977 
	C296.501312,275.854309 295.628265,266.169098 297.498993,256.648834 
	C298.009369,254.051468 297.354187,251.961151 294.744324,250.335983 
	C279.958099,241.128754 274.609589,226.939941 273.570740,210.298218 
	C272.287567,189.741730 277.110443,170.405243 284.471710,151.507736 
	C289.584869,138.381485 303.751221,129.188431 317.821320,128.512253 
	C333.864380,127.741264 346.457977,133.391479 355.089081,146.842285 
	C359.594940,153.864288 361.234772,162.196854 363.678986,170.123779 
	C369.171967,187.938171 370.210724,206.022049 366.310730,224.205032 
	C364.027313,234.850952 357.795258,243.269165 348.729370,249.318939 
	C345.242767,251.645569 343.249023,254.035538 345.065063,258.315765 
	C345.375275,259.046936 345.323181,259.953064 345.347412,260.781067 
	C345.697601,272.740631 346.103088,284.699341 346.336609,296.661316 
	C346.433929,301.648590 347.990814,306.519379 347.375488,312.034546 
M292.404022,211.045212 
	C293.871826,222.919449 298.987518,232.077606 310.657959,236.898834 
	C314.761810,238.594177 316.702545,242.162842 316.424011,246.979736 
	C315.600220,261.227875 314.874451,275.485687 314.410370,289.749481 
	C313.962402,303.519043 313.292297,317.268585 312.518860,331.024536 
	C311.418854,350.588165 311.047485,370.192871 310.387238,389.780823 
	C310.325745,391.604797 310.402252,393.379181 311.370087,395.094543 
	C313.630219,399.100250 318.607208,401.424469 323.262878,400.448578 
	C328.362823,399.379578 331.549500,395.567139 331.598694,390.153931 
	C331.733032,375.366180 330.302765,360.640839 329.751343,345.885254 
	C329.212006,331.452972 328.595551,317.036530 327.761353,302.616364 
	C326.706512,284.382690 326.451080,266.103882 325.537689,247.860260 
	C325.255127,242.216248 327.422943,238.453674 332.307159,236.339798 
	C345.294281,230.719025 348.988647,219.933060 349.697876,206.953278 
	C350.612518,190.213928 345.276306,174.854919 339.972748,159.480408 
	C337.812439,153.217819 328.771973,146.571503 319.378387,147.329224 
	C312.352814,147.895935 303.902863,153.496414 301.534515,160.529068 
	C296.119476,176.608582 290.808197,192.746201 292.404022,211.045212 
z"/>
<path fill="#9ac1d0" opacity="1.0" stroke="none" 
	d="
M221.626709,177.999786 
	C221.629074,165.003952 221.520935,152.506790 221.672363,140.012787 
	C221.774048,131.623749 225.531540,128.086899 233.169220,128.650574 
	C237.256668,128.952240 240.306961,131.876190 240.318008,136.070328 
	C240.387299,162.394638 240.334976,188.719254 240.371857,215.043686 
	C240.376251,218.175613 238.757690,220.356277 236.715225,222.399597 
	C230.825989,228.291306 225.065659,234.319962 218.998825,240.022629 
	C216.015289,242.827072 214.617661,246.014175 215.464859,249.821930 
	C217.361832,258.347809 216.080444,267.025604 217.130447,275.635986 
	C218.392487,285.984985 217.818985,296.544067 218.419937,306.990326 
	C219.630478,328.033356 220.654617,349.081360 221.570816,370.139526 
	C222.003860,380.092560 224.035416,390.212891 220.921036,399.788269 
	C215.959030,415.044312 203.252060,420.573364 190.167953,419.778290 
	C173.623718,418.772919 163.177170,402.803040 163.435669,390.794739 
	C163.836273,372.184418 165.337906,353.637909 165.838943,335.035492 
	C166.182404,322.283325 167.248672,309.533630 167.723953,296.759613 
	C168.303177,281.190796 169.547470,265.645355 170.604675,250.096664 
	C170.867477,246.231766 170.161423,243.050690 167.152054,240.216125 
	C160.969543,234.392731 155.115082,228.222504 149.061295,222.260300 
	C146.667542,219.902771 145.567734,217.245316 145.579788,213.814713 
	C145.669403,188.323532 145.614761,162.831894 145.640289,137.340439 
	C145.645432,132.194489 148.178192,129.103928 152.546448,128.664536 
	C158.875168,128.027924 161.923492,129.990967 163.514191,135.353180 
	C164.242081,137.806900 164.370483,140.245041 164.370041,142.743851 
	C164.366531,163.070404 164.516571,183.398697 164.268982,203.722198 
	C164.210785,208.500046 165.654007,211.900009 169.118332,215.056168 
	C174.532089,219.988312 179.598953,225.301498 184.806213,230.459885 
	C187.881165,233.506012 189.631073,236.961578 189.431458,241.533203 
	C188.613708,260.260712 187.943192,278.992157 186.474411,297.687408 
	C185.928772,304.632660 186.070343,311.605988 185.577606,318.583405 
	C184.361649,335.801697 184.282059,353.097778 183.243210,370.332306 
	C182.863495,376.632202 182.273727,382.911926 182.386688,389.228821 
	C182.503021,395.735596 187.155258,400.646271 193.091568,400.609100 
	C199.181641,400.571014 203.744156,395.880737 203.564026,389.112488 
	C203.069656,370.538269 202.175644,351.980072 200.754990,333.447662 
	C200.209793,326.335449 200.324463,319.197632 199.826233,312.056335 
	C198.601761,294.504730 198.550797,276.873413 197.472748,259.308258 
	C197.106613,253.342529 196.877731,247.380981 196.566544,241.417587 
	C196.336990,237.018204 198.029129,233.748322 200.995605,230.792847 
	C206.778519,225.031403 212.434860,219.142120 218.258316,213.422562 
	C220.680740,211.043365 221.753632,208.429733 221.684082,204.988205 
	C221.505707,196.161942 221.625854,187.329666 221.626709,177.999786 
z"/>
<path fill="#9ac1d0" opacity="1.0" stroke="none" 
	d="
M366.276733,363.342468 
	C374.255371,354.383514 381.578369,345.383423 387.661926,335.427765 
	C397.840454,318.770752 404.219269,300.699585 407.527863,281.534698 
	C412.212189,254.400772 408.922150,228.131622 399.272797,202.397720 
	C393.356018,186.618393 384.431671,172.774826 374.288361,159.544662 
	C370.416718,154.494736 370.934357,147.951447 375.290375,144.901199 
	C379.352814,142.056534 386.045532,143.783020 389.767303,148.203354 
	C406.560516,168.148499 417.449799,190.994263 423.719421,216.192474 
	C428.007294,233.425903 429.466339,250.982986 428.211090,268.570740 
	C425.599548,305.162048 412.758057,337.948517 389.525604,366.493805 
	C386.386658,370.350586 382.711853,373.731781 379.502380,377.568146 
	C375.542358,382.301575 368.853241,382.463745 364.734833,378.690369 
	C360.651093,374.948761 361.130768,369.379944 366.276733,363.342468 
z"/>
<path fill="#9ac1d0" opacity="1.0" stroke="none" 
	d="
M111.794899,303.461639 
	C118.842979,324.799469 129.392227,343.607483 144.822220,359.549866 
	C146.201752,360.975220 147.295319,362.674591 148.552338,364.221802 
	C152.408920,368.968750 152.368393,375.310425 148.444550,378.530487 
	C144.509277,381.759888 137.478119,380.811157 133.552124,376.618011 
	C117.486916,359.459869 104.717529,340.216309 96.570503,318.071503 
	C91.458786,304.177094 88.069603,289.913605 86.511353,275.125824 
	C83.840080,249.775391 86.590607,225.104401 94.654785,201.011688 
	C100.018059,184.988251 107.912819,170.213974 117.710335,156.460800 
	C120.522232,152.513626 126.738022,151.246033 131.181580,153.580154 
	C134.988403,155.579803 136.481461,160.469040 134.392014,165.375992 
	C133.234818,168.093597 131.598434,170.647751 129.914200,173.093918 
	C116.556335,192.494751 108.810982,214.092789 105.555435,237.240067 
	C102.412331,259.587830 104.933220,281.576172 111.794899,303.461639 
z"/>
<path fill="#9ac1d0" opacity="1.0" stroke="none" 
	d="
M201.740997,114.364578 
	C194.612076,114.299850 191.627029,112.397369 190.745239,107.650322 
	C189.664444,101.831917 192.222763,97.720192 198.448257,95.510895 
	C221.598267,87.295441 245.529175,84.323624 269.938629,85.800591 
	C278.807953,86.337265 287.618469,88.256271 296.386688,89.910866 
	C302.368134,91.039566 305.096405,95.329041 304.295563,101.212784 
	C303.626526,106.127838 300.336121,108.637077 294.137665,108.331551 
	C286.369446,107.948624 278.781281,106.063995 271.057648,105.133064 
	C257.368042,103.483040 243.972412,104.904228 230.487442,106.838455 
	C220.723206,108.239006 211.605896,111.832008 201.740997,114.364578 
z"/>
<path fill="#9ac1d0" opacity="1.0" stroke="none" 
	d="
M214.588379,208.971313 
	C212.598679,214.170410 208.867249,215.864548 204.118057,215.027054 
	C199.129242,214.147339 196.638733,210.531387 196.635544,204.905045 
	C196.623062,182.921082 196.620712,160.937088 196.645386,138.953156 
	C196.653534,131.695923 199.054138,128.845901 205.166260,128.644791 
	C211.610474,128.432739 215.196045,131.721405 215.304138,138.715424 
	C215.502304,151.536346 215.524826,164.364807 215.326553,177.185577 
	C215.164795,187.645828 216.189789,198.132751 214.588379,208.971313 
z"/>
<path fill="#9ac1d0" opacity="1.0" stroke="none" 
	d="
M171.427719,208.946701 
	C170.476364,207.169525 170.641510,205.641678 170.640656,204.157394 
	C170.628342,182.683350 170.579788,161.209091 170.660446,139.735352 
	C170.690323,131.777908 174.241928,128.239166 181.312897,128.647034 
	C186.119812,128.924301 189.253433,131.629623 189.280212,136.464890 
	C189.411133,160.101974 189.435852,183.740952 189.252213,207.377350 
	C189.215897,212.051025 185.496582,214.394409 181.371399,215.066818 
	C176.868149,215.800873 173.248764,213.976074 171.427719,208.946701 
z"/>
<path fill="#9ac1d0" opacity="1.0" stroke="none" 
	d="
M260.973450,428.395996 
	C252.850952,428.334076 245.228394,428.650238 237.625214,427.428436 
	C232.224960,426.560608 228.413452,422.619019 228.667770,417.369629 
	C228.906082,412.451080 232.896622,408.667725 238.349625,408.703247 
	C242.642029,408.731232 246.927536,409.509125 251.222092,409.577240 
	C259.182861,409.703583 267.124207,409.493347 275.087006,408.770935 
	C281.385345,408.199615 285.021271,411.903870 285.348419,417.679230 
	C285.673553,423.419281 282.384888,426.496338 275.850189,427.468536 
	C271.054565,428.182007 266.287231,428.464996 260.973450,428.395996 
z"/>
</svg>